<svg xmlns="http://www.w3.org/2000/svg" viewBox="0 0 863.68 573.18"><title>cc-logo-blue-symbol</title><path d="M710.43,286.05h0L605.36,181l-35-35-50,50,73.17,73.17a23.88,23.88,0,0,1,7,17H710.43L570.7,425.78l-.18.18-.18.18h0L290.16,146h0L150.07,286.05H48A55.5,55.5,0,0,0,64.27,325.4L244.45,505.58a55.74,55.74,0,0,0,78.74,0l73.15-73.15L340.11,376.2l-49.94,49.94-46.7-46.7-93.39-93.39H259.86a24,24,0,0,1,40.9-17l146,146c.14.13.28.24.42.38s.25.28.38.42l89.69,89.69a55.73,55.73,0,0,0,78.73,0L796.18,325.4a55.5,55.5,0,0,0,16.28-39.35Z" style="fill:#e6e7e8"/><path d="M259.86,286.05H150.07l93.39,93.39,46.7,46.7,49.94-49.94L266.88,303A23.88,23.88,0,0,1,259.86,286.05Z" style="fill:#f7f7f7"/><path d="M796.17,246.66,616,66.48a55.9,55.9,0,0,0-78.73,0L464.1,139.63l56.29,56.29,50-50h0l35,35L710.43,286.05h102A55.5,55.5,0,0,0,796.17,246.66Z" style="fill:#f7f7f7"/><path d="M600.58,286.05A24,24,0,0,1,559.68,303L323.19,66.48a55.91,55.91,0,0,0-78.74,0L64.27,246.66A55.5,55.5,0,0,0,48,286.05H150.07L290.16,146,570.34,426.14h0L710.43,286.05H600.58Z" style="fill:#f7f7f7"/><path d="M832.16,210.26,653.42,31.52a108.17,108.17,0,0,0-152.65,0l-68.9,68.9L363,31.52a108.17,108.17,0,0,0-152.65,0L31.56,210.26a108.07,108.07,0,0,0,0,152.65L210.31,541.66a108.18,108.18,0,0,0,152.65,0l68.9-68.9,68.9,68.9a108.17,108.17,0,0,0,152.65,0L832.16,362.92a108.17,108.17,0,0,0,0-152.65ZM791.22,322,612.48,500.72a50.28,50.28,0,0,1-70.77,0l-89-89c-.12-.13-.23-.26-.35-.39s-.26-.23-.39-.35L307.1,266.12a28.95,28.95,0,0,0-40.94,40.94L390.93,431.82,322,500.72a50.28,50.28,0,0,1-70.78,0L72.5,322a50.1,50.1,0,0,1,0-70.77L251.25,72.46a50.28,50.28,0,0,1,70.78,0l234.6,234.6a28.95,28.95,0,0,0,40.94-40.94L472.8,141.36l68.9-68.9a50.27,50.27,0,0,1,70.77,0L791.22,251.2a50.28,50.28,0,0,1,0,70.77Z" style="fill:#00b0ff"/></svg>