<?xml version="1.0" encoding="UTF-8"?>
<svg xmlns="http://www.w3.org/2000/svg" xmlns:xlink="http://www.w3.org/1999/xlink" width="42pt" height="28pt" viewBox="0 0 42 28" version="1.1">
<g id="surface1">
<path style=" stroke:none;fill-rule:nonzero;fill:rgb(90.196078%,90.588235%,90.980392%);fill-opacity:1;" d="M 34.535156 13.972656 L 29.433594 8.847656 L 27.726562 7.136719 L 25.308594 9.570312 L 28.863281 13.152344 C 29.082031 13.371094 29.203125 13.671875 29.203125 13.972656 L 34.535156 13.972656 L 27.753906 20.792969 L 27.738281 20.808594 L 27.726562 20.808594 L 14.109375 7.136719 L 7.300781 13.972656 L 2.351562 13.972656 C 2.351562 14.699219 2.625 15.394531 3.144531 15.902344 L 11.894531 24.691406 C 12.949219 25.757812 14.65625 25.757812 15.722656 24.691406 L 19.277344 21.121094 L 16.542969 18.375 L 14.109375 20.808594 L 11.839844 18.539062 L 7.300781 13.972656 L 12.644531 13.972656 C 12.644531 13.507812 12.933594 13.070312 13.355469 12.894531 C 13.792969 12.714844 14.300781 12.808594 14.628906 13.136719 L 21.722656 20.277344 C 21.738281 20.289062 21.738281 20.289062 21.738281 20.289062 C 21.753906 20.300781 21.765625 20.300781 21.765625 20.316406 L 26.128906 24.691406 C 27.179688 25.757812 28.886719 25.757812 29.941406 24.691406 L 38.707031 15.902344 C 39.210938 15.394531 39.496094 14.699219 39.496094 13.972656 Z M 34.535156 13.972656 "/>
<path style=" stroke:none;fill-rule:nonzero;fill:rgb(96.862745%,96.862745%,96.862745%);fill-opacity:1;" d="M 12.644531 13.972656 L 7.300781 13.972656 L 11.839844 18.539062 L 14.109375 20.808594 L 16.542969 18.375 L 12.988281 14.808594 C 12.769531 14.574219 12.644531 14.285156 12.644531 13.972656 Z M 12.644531 13.972656 "/>
<path style=" stroke:none;fill-rule:nonzero;fill:rgb(96.862745%,96.862745%,96.862745%);fill-opacity:1;" d="M 38.707031 12.042969 L 29.941406 3.253906 C 28.886719 2.1875 27.179688 2.1875 26.128906 3.253906 L 22.574219 6.824219 L 25.308594 9.570312 L 27.726562 7.136719 L 29.433594 8.832031 L 34.535156 13.972656 L 39.496094 13.972656 C 39.496094 13.246094 39.210938 12.566406 38.707031 12.042969 Z M 38.707031 12.042969 "/>
<path style=" stroke:none;fill-rule:nonzero;fill:rgb(96.862745%,96.862745%,96.862745%);fill-opacity:1;" d="M 29.203125 13.972656 C 29.203125 14.449219 28.917969 14.875 28.480469 15.050781 C 28.042969 15.230469 27.550781 15.136719 27.207031 14.808594 L 15.722656 3.253906 C 14.65625 2.1875 12.960938 2.1875 11.894531 3.253906 L 3.144531 12.042969 C 2.625 12.566406 2.351562 13.246094 2.351562 13.972656 L 7.300781 13.972656 L 14.109375 7.136719 L 27.726562 20.808594 L 34.535156 13.972656 Z M 29.203125 13.972656 "/>
<path style=" stroke:none;fill-rule:nonzero;fill:rgb(0%,69.019608%,100%);fill-opacity:1;" d="M 40.457031 10.269531 L 31.773438 1.53125 C 29.722656 -0.519531 26.402344 -0.519531 24.347656 1.53125 L 21 4.910156 L 17.652344 1.53125 C 15.597656 -0.519531 12.292969 -0.519531 10.238281 1.53125 L 1.542969 10.269531 C -0.492188 12.332031 -0.492188 15.667969 1.542969 17.730469 L 10.226562 26.46875 C 12.277344 28.519531 15.597656 28.519531 17.652344 26.46875 L 21 23.089844 L 24.347656 26.46875 C 26.402344 28.519531 29.722656 28.519531 31.773438 26.46875 L 40.457031 17.730469 C 42.492188 15.667969 42.492188 12.332031 40.457031 10.269531 Z M 38.472656 15.722656 L 29.777344 24.457031 C 28.820312 25.402344 27.289062 25.402344 26.332031 24.457031 L 22.011719 20.113281 C 22.011719 20.113281 21.996094 20.097656 21.996094 20.097656 C 21.984375 20.082031 21.984375 20.082031 21.984375 20.070312 L 14.929688 13.003906 C 14.382812 12.457031 13.507812 12.457031 12.960938 13.015625 C 12.414062 13.5625 12.414062 14.449219 12.949219 14.996094 L 19.003906 21.097656 L 15.667969 24.457031 C 14.710938 25.402344 13.179688 25.402344 12.222656 24.457031 L 3.542969 15.722656 C 2.597656 14.777344 2.597656 13.234375 3.542969 12.277344 L 12.222656 3.542969 C 13.179688 2.597656 14.710938 2.597656 15.667969 3.542969 L 27.070312 14.996094 C 27.617188 15.542969 28.492188 15.542969 29.039062 14.984375 C 29.585938 14.4375 29.597656 13.550781 29.050781 13.003906 L 22.996094 6.902344 L 26.332031 3.542969 C 27.289062 2.597656 28.820312 2.597656 29.777344 3.542969 L 38.472656 12.277344 C 39.402344 13.234375 39.402344 14.765625 38.472656 15.722656 Z M 38.472656 15.722656 "/>
</g>
</svg>
