<?xml version="1.0" encoding="UTF-8"?>
<svg xmlns="http://www.w3.org/2000/svg" xmlns:xlink="http://www.w3.org/1999/xlink" width="50pt" height="93pt" viewBox="0 0 50 93" version="1.1">
<g id="surface1">
<path style=" stroke:none;fill-rule:evenodd;fill:rgb(0%,45.490196%,74.117647%);fill-opacity:1;" d="M 16.546875 49.335938 C 16.546875 49.335938 14.109375 50.753906 18.285156 51.230469 C 23.34375 51.808594 25.929688 51.726562 31.503906 50.671875 C 31.503906 50.671875 32.972656 51.589844 35.019531 52.386719 C 22.519531 57.738281 6.730469 52.078125 16.546875 49.335938 Z M 16.546875 49.335938 "/>
<path style=" stroke:none;fill-rule:evenodd;fill:rgb(0%,45.490196%,74.117647%);fill-opacity:1;" d="M 15.019531 42.351562 C 15.019531 42.351562 12.28125 44.375 16.460938 44.808594 C 21.867188 45.363281 26.136719 45.410156 33.523438 43.988281 C 33.523438 43.988281 34.542969 45.023438 36.148438 45.589844 C 21.039062 50.003906 4.207031 45.9375 15.019531 42.351562 Z M 15.019531 42.351562 "/>
<path style=" stroke:none;fill-rule:evenodd;fill:rgb(91.764706%,17.647059%,18.039216%);fill-opacity:1;" d="M 27.894531 30.503906 C 30.976562 34.046875 27.085938 37.234375 27.085938 37.234375 C 27.085938 37.234375 34.90625 33.203125 31.316406 28.148438 C 27.960938 23.4375 25.390625 21.097656 39.3125 13.03125 C 39.3125 13.03125 17.457031 18.484375 27.894531 30.503906 Z M 27.894531 30.503906 "/>
<path style=" stroke:none;fill-rule:evenodd;fill:rgb(0%,45.490196%,74.117647%);fill-opacity:1;" d="M 44.425781 54.5 C 44.425781 54.5 46.230469 55.988281 42.4375 57.140625 C 35.226562 59.320312 12.410156 59.980469 6.074219 57.226562 C 3.796875 56.234375 8.066406 54.863281 9.410156 54.570312 C 10.8125 54.269531 11.613281 54.324219 11.613281 54.324219 C 9.078125 52.542969 -4.761719 57.824219 4.582031 59.339844 C 30.066406 63.46875 51.035156 57.480469 44.425781 54.5 Z M 44.425781 54.5 "/>
<path style=" stroke:none;fill-rule:evenodd;fill:rgb(0%,45.490196%,74.117647%);fill-opacity:1;" d="M 17.71875 35.113281 C 17.71875 35.113281 6.117188 37.867188 13.609375 38.871094 C 16.777344 39.292969 23.082031 39.195312 28.960938 38.703125 C 33.765625 38.300781 38.585938 37.4375 38.585938 37.4375 C 38.585938 37.4375 36.894531 38.164062 35.667969 39 C 23.882812 42.097656 1.117188 40.65625 7.671875 37.488281 C 13.214844 34.808594 17.71875 35.113281 17.71875 35.113281 Z M 17.71875 35.113281 "/>
<path style=" stroke:none;fill-rule:evenodd;fill:rgb(0%,45.490196%,74.117647%);fill-opacity:1;" d="M 38.539062 46.738281 C 50.515625 40.519531 44.976562 34.542969 41.113281 35.351562 C 40.164062 35.546875 39.742188 35.71875 39.742188 35.71875 C 39.742188 35.71875 40.09375 35.167969 40.765625 34.929688 C 48.414062 32.242188 54.296875 42.851562 38.296875 47.054688 C 38.296875 47.054688 38.480469 46.886719 38.539062 46.738281 Z M 38.539062 46.738281 "/>
<path style=" stroke:none;fill-rule:evenodd;fill:rgb(91.764706%,17.647059%,18.039216%);fill-opacity:1;" d="M 31.316406 0 C 31.316406 0 37.949219 6.632812 25.023438 16.824219 C 14.65625 25.007812 22.660156 29.667969 25.019531 35 C 18.96875 29.542969 14.527344 24.742188 17.507812 20.273438 C 21.878906 13.714844 33.992188 10.53125 31.316406 0 Z M 31.316406 0 "/>
<path style=" stroke:none;fill-rule:evenodd;fill:rgb(0%,45.490196%,74.117647%);fill-opacity:1;" d="M 18.898438 63.59375 C 30.394531 64.328125 48.054688 63.1875 48.472656 57.75 C 48.472656 57.75 47.667969 59.8125 38.96875 61.445312 C 29.15625 63.292969 17.050781 63.078125 9.871094 61.894531 C 9.871094 61.894531 11.34375 63.109375 18.898438 63.59375 Z M 18.898438 63.59375 "/>
<path style=" stroke:none;fill-rule:evenodd;fill:rgb(91.764706%,17.647059%,18.039216%);fill-opacity:1;" d="M 47.941406 73.34375 L 47.589844 73.34375 L 47.589844 73.148438 L 48.535156 73.148438 L 48.535156 73.34375 L 48.1875 73.34375 L 48.1875 74.320312 L 47.941406 74.320312 Z M 49.824219 73.394531 L 49.820312 73.394531 L 49.472656 74.320312 L 49.3125 74.320312 L 48.96875 73.394531 L 48.964844 73.394531 L 48.964844 74.320312 L 48.730469 74.320312 L 48.730469 73.148438 L 49.070312 73.148438 L 49.390625 73.980469 L 49.710938 73.148438 L 50.050781 73.148438 L 50.050781 74.320312 L 49.824219 74.320312 Z M 49.824219 73.394531 "/>
<path style=" stroke:none;fill-rule:evenodd;fill:rgb(91.764706%,17.647059%,18.039216%);fill-opacity:1;" d="M 17.015625 84.363281 C 15.929688 85.304688 14.785156 85.832031 13.753906 85.832031 C 12.289062 85.832031 11.492188 84.953125 11.492188 83.542969 C 11.492188 82.019531 12.34375 80.902344 15.753906 80.902344 L 17.015625 80.902344 Z M 20.007812 87.738281 L 20.007812 77.296875 C 20.007812 74.625 18.484375 72.863281 14.8125 72.863281 C 12.667969 72.863281 10.792969 73.394531 9.265625 74.066406 L 9.703125 75.917969 C 10.90625 75.476562 12.460938 75.066406 13.988281 75.066406 C 16.105469 75.066406 17.015625 75.917969 17.015625 77.679688 L 17.015625 79 L 15.957031 79 C 10.816406 79 8.5 80.988281 8.5 83.984375 C 8.5 86.566406 10.027344 88.03125 12.90625 88.03125 C 14.753906 88.03125 16.132812 87.269531 17.425781 86.152344 L 17.660156 87.738281 Z M 20.007812 87.738281 "/>
<path style=" stroke:none;fill-rule:evenodd;fill:rgb(91.764706%,17.647059%,18.039216%);fill-opacity:1;" d="M 29.996094 87.738281 L 26.261719 87.738281 L 21.769531 73.132812 L 25.03125 73.132812 L 27.816406 82.105469 L 28.4375 84.804688 C 29.847656 80.902344 30.84375 76.941406 31.34375 73.132812 L 34.511719 73.132812 C 33.664062 77.941406 32.136719 83.222656 29.996094 87.738281 Z M 29.996094 87.738281 "/>
<path style=" stroke:none;fill-rule:evenodd;fill:rgb(91.764706%,17.647059%,18.039216%);fill-opacity:1;" d="M 44.316406 84.363281 C 43.226562 85.304688 42.082031 85.832031 41.054688 85.832031 C 39.589844 85.832031 38.792969 84.953125 38.792969 83.542969 C 38.792969 82.019531 39.644531 80.902344 43.050781 80.902344 L 44.316406 80.902344 Z M 47.308594 87.738281 L 47.308594 77.296875 C 47.308594 74.625 45.78125 72.863281 42.113281 72.863281 C 39.96875 72.863281 38.089844 73.394531 36.5625 74.066406 L 37.003906 75.917969 C 38.207031 75.476562 39.765625 75.066406 41.289062 75.066406 C 43.402344 75.066406 44.316406 75.917969 44.316406 77.679688 L 44.316406 79 L 43.257812 79 C 38.117188 79 35.800781 80.988281 35.800781 83.984375 C 35.800781 86.566406 37.328125 88.03125 40.203125 88.03125 C 42.054688 88.03125 43.433594 87.269531 44.726562 86.152344 L 44.960938 87.738281 Z M 47.308594 87.738281 "/>
<path style=" stroke:none;fill-rule:evenodd;fill:rgb(91.764706%,17.647059%,18.039216%);fill-opacity:1;" d="M 5.21875 90.222656 C 4.363281 91.464844 2.984375 92.453125 1.476562 93.007812 L 0 91.269531 C 1.148438 90.679688 2.132812 89.730469 2.589844 88.84375 C 2.984375 88.054688 3.152344 87.042969 3.152344 84.613281 L 3.152344 67.9375 L 6.332031 67.9375 L 6.332031 84.382812 C 6.332031 87.628906 6.070312 88.941406 5.21875 90.222656 Z M 5.21875 90.222656 "/>
</g>
</svg>
