<?xml version="1.0" encoding="UTF-8"?>
<svg xmlns="http://www.w3.org/2000/svg" xmlns:xlink="http://www.w3.org/1999/xlink" width="155pt" height="80pt" viewBox="0 0 155 80" version="1.1">
<g id="surface1">
<path style=" stroke:none;fill-rule:nonzero;fill:rgb(0%,38.039216%,54.117647%);fill-opacity:1;" d="M 0.292969 72.898438 C 0.292969 72.898438 5.382812 72.898438 5.382812 72.898438 C 5.382812 72.898438 5.382812 52.789062 5.382812 52.789062 C 5.382812 52.789062 13.261719 70.320312 13.261719 70.320312 C 14.191406 72.441406 15.464844 73.191406 17.960938 73.191406 C 20.457031 73.191406 21.683594 72.441406 22.613281 70.320312 C 22.613281 70.320312 30.492188 52.789062 30.492188 52.789062 C 30.492188 52.789062 30.492188 72.898438 30.492188 72.898438 C 30.492188 72.898438 35.582031 72.898438 35.582031 72.898438 C 35.582031 72.898438 35.582031 52.820312 35.582031 52.820312 C 35.582031 50.863281 34.800781 49.914062 33.183594 49.425781 C 29.316406 48.21875 26.722656 49.261719 25.546875 51.875 C 25.546875 51.875 17.816406 69.175781 17.816406 69.175781 C 17.816406 69.175781 10.328125 51.875 10.328125 51.875 C 9.199219 49.261719 6.558594 48.21875 2.691406 49.425781 C 1.074219 49.914062 0.292969 50.863281 0.292969 52.820312 C 0.292969 52.820312 0.292969 72.898438 0.292969 72.898438 Z M 0.292969 72.898438 "/>
<path style=" stroke:none;fill-rule:nonzero;fill:rgb(0%,38.039216%,54.117647%);fill-opacity:1;" d="M 39.816406 56.527344 C 39.816406 56.527344 44.902344 56.527344 44.902344 56.527344 C 44.902344 56.527344 44.902344 67.609375 44.902344 67.609375 C 44.855469 68.210938 45.097656 69.621094 47.886719 69.667969 C 49.308594 69.6875 58.867188 69.667969 58.953125 69.667969 C 58.953125 69.667969 58.953125 56.476562 58.953125 56.476562 C 58.953125 56.476562 64.054688 56.476562 64.054688 56.476562 C 64.078125 56.476562 64.050781 74.464844 64.050781 74.542969 C 64.078125 78.976562 58.546875 79.941406 56 80.015625 C 56 80.015625 39.925781 80.015625 39.925781 80.015625 C 39.925781 80.015625 39.925781 76.589844 39.925781 76.589844 C 39.953125 76.589844 55.988281 76.59375 56.027344 76.589844 C 59.304688 76.242188 58.917969 74.613281 58.914062 74.066406 C 58.914062 74.066406 58.914062 72.730469 58.914062 72.730469 C 58.914062 72.730469 48.097656 72.730469 48.097656 72.730469 C 43.0625 72.683594 39.859375 70.484375 39.816406 67.957031 C 39.8125 67.722656 39.925781 56.640625 39.816406 56.527344 Z M 39.816406 56.527344 "/>
<path style=" stroke:none;fill-rule:nonzero;fill:rgb(89.411765%,55.686275%,0%);fill-opacity:1;" d="M 67.976562 72.898438 C 67.976562 72.898438 82.613281 72.898438 82.613281 72.898438 C 84.324219 72.898438 85.988281 72.539062 87.3125 71.917969 C 89.515625 70.90625 90.589844 69.535156 90.589844 67.738281 C 90.589844 67.738281 90.589844 64.019531 90.589844 64.019531 C 90.589844 62.550781 89.367188 61.175781 86.96875 60.265625 C 85.695312 59.773438 84.128906 59.511719 82.613281 59.511719 C 82.613281 59.511719 76.445312 59.511719 76.445312 59.511719 C 74.390625 59.511719 73.410156 58.894531 73.167969 57.523438 C 73.117188 57.359375 73.117188 57.226562 73.117188 57.066406 C 73.117188 57.066406 73.117188 54.746094 73.117188 54.746094 C 73.117188 54.617188 73.117188 54.484375 73.167969 54.324219 C 73.410156 53.277344 73.949219 52.984375 75.761719 52.820312 C 75.90625 52.820312 76.101562 52.789062 76.25 52.789062 C 76.25 52.789062 90.785156 52.789062 90.785156 52.789062 C 90.785156 52.789062 90.785156 49.394531 90.785156 49.394531 C 90.785156 49.394531 76.496094 49.394531 76.496094 49.394531 C 74.4375 49.394531 73.363281 49.523438 72.382812 49.816406 C 69.347656 50.765625 68.027344 52.265625 68.027344 54.878906 C 68.027344 54.878906 68.027344 57.847656 68.027344 57.847656 C 68.027344 60.132812 70.621094 62.09375 74.976562 62.550781 C 75.46875 62.582031 75.957031 62.613281 76.445312 62.613281 C 76.445312 62.613281 81.730469 62.613281 81.730469 62.613281 C 81.925781 62.613281 82.125 62.613281 82.269531 62.648438 C 83.886719 62.777344 84.570312 63.070312 85.058594 63.660156 C 85.355469 63.953125 85.453125 64.246094 85.453125 64.574219 C 85.453125 64.574219 85.453125 67.542969 85.453125 67.542969 C 85.453125 67.902344 85.207031 68.359375 84.71875 68.75 C 84.277344 69.144531 83.542969 69.40625 82.5625 69.46875 C 82.367188 69.46875 82.222656 69.503906 82.027344 69.503906 C 82.027344 69.503906 67.976562 69.503906 67.976562 69.503906 C 67.976562 69.503906 67.976562 72.898438 67.976562 72.898438 Z M 67.976562 72.898438 "/>
<path style=" stroke:none;fill-rule:nonzero;fill:rgb(89.411765%,55.686275%,0%);fill-opacity:1;" d="M 122.347656 66.988281 C 122.347656 70.480469 124.941406 72.441406 130.175781 72.832031 C 130.667969 72.863281 131.15625 72.898438 131.644531 72.898438 C 131.644531 72.898438 144.910156 72.898438 144.910156 72.898438 C 144.910156 72.898438 144.910156 69.503906 144.910156 69.503906 C 144.910156 69.503906 131.546875 69.503906 131.546875 69.503906 C 128.5625 69.503906 127.4375 68.75 127.4375 66.957031 C 127.4375 66.957031 127.4375 49.394531 127.4375 49.394531 C 127.4375 49.394531 122.347656 49.394531 122.347656 49.394531 C 122.347656 49.394531 122.347656 66.988281 122.347656 66.988281 Z M 122.347656 66.988281 "/>
<path style=" stroke:none;fill-rule:nonzero;fill:rgb(89.411765%,55.686275%,0%);fill-opacity:1;" d="M 93.839844 67.167969 C 93.839844 67.167969 93.839844 55.0625 93.839844 55.0625 C 93.839844 51.988281 95.996094 50.125 100.265625 49.535156 C 100.707031 49.46875 101.195312 49.4375 101.636719 49.4375 C 101.636719 49.4375 111.300781 49.4375 111.300781 49.4375 C 111.789062 49.4375 112.234375 49.46875 112.722656 49.535156 C 116.988281 50.125 119.148438 51.988281 119.148438 55.0625 C 119.148438 55.0625 119.148438 67.167969 119.148438 67.167969 C 119.148438 69.660156 118.230469 70.996094 116.121094 71.867188 C 116.121094 71.867188 121.132812 76.394531 121.132812 76.394531 C 121.132812 76.394531 115.222656 76.394531 115.222656 76.394531 C 115.222656 76.394531 111.167969 72.730469 111.167969 72.730469 C 111.167969 72.730469 107.082031 72.988281 107.082031 72.988281 C 107.082031 72.988281 101.636719 72.988281 101.636719 72.988281 C 100.707031 72.988281 99.726562 72.859375 98.644531 72.566406 C 95.410156 71.679688 93.839844 69.980469 93.839844 67.167969 Z M 99.332031 66.871094 C 99.332031 67.035156 99.382812 67.199219 99.433594 67.394531 C 99.726562 68.800781 101.050781 69.585938 103.0625 69.585938 C 103.0625 69.585938 107.6875 69.585938 107.6875 69.585938 C 107.6875 69.585938 103.4375 65.75 103.4375 65.75 C 103.4375 65.75 109.347656 65.75 109.347656 65.75 C 109.347656 65.75 113.054688 69.097656 113.054688 69.097656 C 113.734375 68.734375 114.183594 68.175781 114.34375 67.460938 C 114.390625 67.296875 114.390625 67.132812 114.390625 66.972656 C 114.390625 66.972656 114.390625 55.359375 114.390625 55.359375 C 114.390625 55.226562 114.390625 55.0625 114.34375 54.898438 C 114.046875 53.589844 112.722656 52.839844 110.761719 52.839844 C 110.761719 52.839844 103.0625 52.839844 103.0625 52.839844 C 100.804688 52.839844 99.332031 53.820312 99.332031 55.359375 C 99.332031 55.359375 99.332031 66.871094 99.332031 66.871094 Z M 99.332031 66.871094 "/>
<path style=" stroke:none;fill-rule:nonzero;fill:rgb(0%,38.039216%,54.117647%);fill-opacity:1;" d="M 149.386719 43.761719 C 146.257812 43.675781 143.871094 43.96875 141.824219 44.828125 C 141.246094 45.074219 140.320312 45.082031 140.222656 45.808594 C 140.542969 46.144531 140.59375 46.644531 140.847656 47.054688 C 141.335938 47.84375 142.160156 48.902344 142.894531 49.457031 C 143.695312 50.066406 144.523438 50.714844 145.386719 51.238281 C 146.917969 52.171875 148.625 52.707031 150.101562 53.640625 C 150.96875 54.195312 151.832031 54.886719 152.679688 55.511719 C 153.097656 55.820312 153.382812 56.296875 153.925781 56.488281 C 153.925781 56.460938 153.925781 56.429688 153.925781 56.402344 C 153.640625 56.035156 153.566406 55.535156 153.304688 55.15625 C 152.917969 54.769531 152.53125 54.382812 152.144531 53.996094 C 151.015625 52.496094 149.578125 51.175781 148.054688 50.082031 C 146.835938 49.207031 144.113281 48.027344 143.605469 46.609375 C 143.574219 46.582031 143.546875 46.550781 143.515625 46.519531 C 144.378906 46.421875 145.390625 46.109375 146.1875 45.898438 C 147.523438 45.539062 148.71875 45.632812 150.101562 45.273438 C 150.722656 45.097656 151.347656 44.917969 151.96875 44.742188 C 151.96875 44.621094 151.96875 44.503906 151.96875 44.382812 C 151.269531 43.667969 150.773438 42.71875 150.011719 42.070312 C 148.019531 40.375 145.84375 38.675781 143.605469 37.261719 C 142.363281 36.480469 140.828125 35.96875 139.511719 35.304688 C 139.070312 35.082031 138.292969 34.964844 138 34.59375 C 137.308594 33.710938 136.933594 32.59375 136.398438 31.566406 C 135.28125 29.414062 134.183594 27.066406 133.195312 24.800781 C 132.519531 23.257812 132.078125 21.734375 131.238281 20.351562 C 127.199219 13.707031 122.847656 9.695312 116.113281 5.753906 C 114.679688 4.914062 112.953125 4.582031 111.128906 4.152344 C 110.152344 4.089844 109.171875 4.03125 108.195312 3.972656 C 107.597656 3.722656 106.976562 2.992188 106.414062 2.636719 C 104.183594 1.226562 98.457031 -1.839844 96.804688 2.191406 C 95.761719 4.738281 98.367188 7.222656 99.296875 8.511719 C 99.949219 9.417969 100.785156 10.433594 101.253906 11.449219 C 101.5625 12.117188 101.613281 12.789062 101.878906 13.496094 C 102.523438 15.242188 103.085938 17.136719 103.921875 18.75 C 104.347656 19.5625 104.8125 20.421875 105.347656 21.152344 C 105.675781 21.597656 106.238281 21.796875 106.324219 22.488281 C 105.777344 23.257812 105.746094 24.449219 105.4375 25.425781 C 104.046875 29.8125 104.570312 35.261719 106.59375 38.507812 C 107.214844 39.507812 108.675781 41.644531 110.683594 40.824219 C 112.445312 40.109375 112.050781 37.886719 112.554688 35.929688 C 112.667969 35.484375 112.597656 35.15625 112.820312 34.859375 C 112.820312 34.890625 112.820312 34.917969 112.820312 34.949219 C 113.355469 36.015625 113.886719 37.085938 114.421875 38.152344 C 115.609375 40.0625 117.710938 42.058594 119.492188 43.40625 C 120.417969 44.105469 121.144531 45.3125 122.339844 45.71875 C 122.339844 45.691406 122.339844 45.660156 122.339844 45.628906 C 122.3125 45.628906 122.28125 45.628906 122.25 45.628906 C 122.019531 45.269531 121.65625 45.121094 121.363281 44.828125 C 120.664062 44.148438 119.890625 43.296875 119.316406 42.515625 C 117.695312 40.3125 116.261719 37.902344 114.957031 35.394531 C 114.332031 34.195312 113.789062 32.875 113.265625 31.65625 C 113.0625 31.183594 113.066406 30.476562 112.644531 30.230469 C 112.066406 31.125 111.21875 31.847656 110.773438 32.902344 C 110.0625 34.589844 109.96875 36.644531 109.707031 38.777344 C 109.550781 38.832031 109.621094 38.792969 109.527344 38.867188 C 108.289062 38.566406 107.855469 37.289062 107.394531 36.195312 C 106.230469 33.425781 106.011719 28.96875 107.039062 25.78125 C 107.300781 24.957031 108.5 22.359375 108.015625 21.597656 C 107.785156 20.835938 107.019531 20.398438 106.59375 19.816406 C 106.0625 19.097656 105.535156 18.152344 105.167969 17.324219 C 104.214844 15.164062 103.769531 12.742188 102.765625 10.558594 C 102.285156 9.515625 101.476562 8.460938 100.808594 7.535156 C 100.070312 6.507812 99.246094 5.75 98.675781 4.507812 C 98.46875 4.066406 98.195312 3.359375 98.496094 2.90625 C 98.59375 2.597656 98.726562 2.46875 99.03125 2.371094 C 99.546875 1.972656 100.984375 2.503906 101.519531 2.726562 C 102.949219 3.320312 104.136719 3.882812 105.347656 4.683594 C 105.925781 5.070312 106.515625 5.8125 107.214844 6.019531 C 107.480469 6.019531 107.75 6.019531 108.015625 6.019531 C 109.269531 6.308594 110.671875 6.109375 111.84375 6.464844 C 113.910156 7.09375 115.761719 8.070312 117.445312 9.136719 C 122.574219 12.375 126.769531 16.984375 129.636719 22.488281 C 130.097656 23.371094 130.296875 24.21875 130.703125 25.15625 C 131.523438 27.050781 132.558594 29 133.371094 30.855469 C 134.1875 32.703125 134.980469 34.566406 136.132812 36.105469 C 136.738281 36.914062 139.074219 37.347656 140.136719 37.796875 C 140.878906 38.113281 142.097656 38.441406 142.804688 38.867188 C 144.152344 39.679688 145.457031 40.644531 146.71875 41.535156 C 147.351562 41.980469 149.292969 42.957031 149.386719 43.761719 Z M 149.386719 43.761719 "/>
<path style=" stroke:none;fill-rule:evenodd;fill:rgb(0%,38.039216%,54.117647%);fill-opacity:1;" d="M 109.617188 9.847656 C 108.964844 9.835938 108.503906 9.917969 108.015625 10.023438 C 108.015625 10.054688 108.015625 10.085938 108.015625 10.113281 C 108.046875 10.113281 108.074219 10.113281 108.105469 10.113281 C 108.417969 10.753906 108.964844 11.164062 109.351562 11.71875 C 109.648438 12.339844 109.945312 12.964844 110.242188 13.585938 C 110.269531 13.554688 110.300781 13.527344 110.328125 13.496094 C 110.878906 13.109375 111.132812 12.488281 111.128906 11.539062 C 110.910156 11.304688 110.875 11.015625 110.683594 10.738281 C 110.429688 10.367188 109.9375 10.15625 109.617188 9.847656 Z M 109.617188 9.847656 "/>
<path style=" stroke:none;fill-rule:evenodd;fill:rgb(89.411765%,55.686275%,0%);fill-opacity:1;" d="M 147.300781 69.40625 C 147.300781 71.648438 149.070312 73.160156 151.050781 73.160156 C 153.03125 73.160156 154.800781 71.648438 154.800781 69.40625 C 154.800781 67.164062 153.03125 65.652344 151.050781 65.652344 C 149.070312 65.652344 147.300781 67.164062 147.300781 69.40625 Z M 153.960938 69.40625 C 153.960938 71.105469 152.660156 72.378906 151.050781 72.378906 C 149.421875 72.378906 148.140625 71.105469 148.140625 69.40625 C 148.140625 67.703125 149.421875 66.433594 151.050781 66.433594 C 152.660156 66.433594 153.960938 67.703125 153.960938 69.40625 Z M 152.0625 71.546875 C 152.0625 71.546875 152.902344 71.546875 152.902344 71.546875 C 152.902344 71.546875 151.671875 69.667969 151.671875 69.667969 C 152.332031 69.597656 152.832031 69.277344 152.832031 68.496094 C 152.832031 67.625 152.28125 67.265625 151.222656 67.265625 C 151.222656 67.265625 149.550781 67.265625 149.550781 67.265625 C 149.550781 67.265625 149.550781 71.546875 149.550781 71.546875 C 149.550781 71.546875 150.269531 71.546875 150.269531 71.546875 C 150.269531 71.546875 150.269531 69.695312 150.269531 69.695312 C 150.269531 69.695312 150.941406 69.695312 150.941406 69.695312 C 150.941406 69.695312 152.0625 71.546875 152.0625 71.546875 Z M 150.269531 69.09375 C 150.269531 69.09375 150.269531 67.863281 150.269531 67.863281 C 150.269531 67.863281 151.101562 67.863281 151.101562 67.863281 C 151.53125 67.863281 152.050781 67.945312 152.050781 68.445312 C 152.050781 69.046875 151.582031 69.09375 151.039062 69.09375 C 151.039062 69.09375 150.269531 69.09375 150.269531 69.09375 Z M 150.269531 69.09375 "/>
</g>
</svg>
