<?xml version="1.0" encoding="UTF-8"?>
<svg xmlns="http://www.w3.org/2000/svg" xmlns:xlink="http://www.w3.org/1999/xlink" width="216pt" height="64pt" viewBox="0 0 216 64" version="1.1">
<defs>
<linearGradient id="linear0" gradientUnits="userSpaceOnUse" x1="26.648937" y1="20.603781" x2="135.66525" y2="114.39767" gradientTransform="matrix(0.250018,0,0,0.252432,-4.177666,-2.357919)">
<stop offset="0" style="stop-color:rgb(35.294118%,62.352941%,83.137255%);stop-opacity:1;"/>
<stop offset="1" style="stop-color:rgb(18.823529%,41.176471%,59.607843%);stop-opacity:1;"/>
</linearGradient>
<linearGradient id="linear1" gradientUnits="userSpaceOnUse" x1="150.96111" y1="192.35176" x2="112.03144" y2="137.27299" gradientTransform="matrix(0.250018,0,0,0.252432,-4.177666,-2.357919)">
<stop offset="0" style="stop-color:rgb(100%,83.137255%,23.137255%);stop-opacity:1;"/>
<stop offset="1" style="stop-color:rgb(100%,90.980392%,45.098039%);stop-opacity:1;"/>
</linearGradient>
<filter id="alpha" filterUnits="objectBoundingBox" x="0%" y="0%" width="100%" height="100%">
  <feColorMatrix type="matrix" in="SourceGraphic" values="0 0 0 0 1 0 0 0 0 1 0 0 0 0 1 0 0 0 1 0"/>
</filter>
<mask id="mask0">
  <g filter="url(#alpha)">
<rect x="0" y="0" width="216" height="64" style="fill:rgb(0%,0%,0%);fill-opacity:0.443137;stroke:none;"/>
  </g>
</mask>
<radialGradient id="radial0" gradientUnits="userSpaceOnUse" cx="61.518883" cy="132.28575" fx="61.518883" fy="132.28575" r="29.036913" gradientTransform="matrix(0.00000000777358,-0.106643,0.468741,0.000000168513,-34.715302,66.159584)">
<stop offset="0" style="stop-color:rgb(72.156863%,72.156863%,72.156863%);stop-opacity:0.498039;"/>
<stop offset="1" style="stop-color:rgb(49.803922%,49.803922%,49.803922%);stop-opacity:0;"/>
</radialGradient>
<clipPath id="clip1">
  <rect width="216" height="64"/>
</clipPath>
<g id="surface6" clip-path="url(#clip1)">
<path style=" stroke:none;fill-rule:nonzero;fill:url(#radial0);" d="M 43.261719 59.597656 C 43.261719 61.308594 36.113281 62.695312 27.292969 62.695312 C 18.472656 62.695312 11.324219 61.308594 11.324219 59.597656 C 11.324219 57.890625 18.472656 56.503906 27.292969 56.503906 C 36.113281 56.503906 43.261719 57.890625 43.261719 59.597656 Z M 43.261719 59.597656 "/>
</g>
</defs>
<g id="surface1">
<path style=" stroke:none;fill-rule:nonzero;fill:rgb(39.215686%,39.215686%,39.215686%);fill-opacity:1;" d="M 82.050781 27.523438 C 82.050781 21.050781 80.203125 17.730469 76.515625 17.546875 C 75.046875 17.476562 73.613281 17.710938 72.214844 18.253906 C 71.101562 18.652344 70.355469 19.046875 69.960938 19.445312 L 69.960938 34.894531 C 72.320312 36.375 74.417969 37.0625 76.246094 36.953125 C 80.113281 36.699219 82.050781 33.558594 82.050781 27.523438 Z M 86.601562 27.792969 C 86.601562 31.082031 85.832031 33.808594 84.28125 35.980469 C 82.554688 38.4375 80.15625 39.703125 77.09375 39.769531 C 74.785156 39.84375 72.40625 39.121094 69.960938 37.605469 L 69.960938 51.644531 L 66 50.234375 L 66 19.066406 C 66.648438 18.269531 67.484375 17.585938 68.5 17.007812 C 70.855469 15.632812 73.71875 14.925781 77.089844 14.890625 L 77.148438 14.949219 C 80.226562 14.910156 82.601562 16.175781 84.269531 18.738281 C 85.824219 21.089844 86.601562 24.105469 86.601562 27.792969 Z M 86.601562 27.792969 "/>
<path style=" stroke:none;fill-rule:nonzero;fill:rgb(39.215686%,39.215686%,39.215686%);fill-opacity:1;" d="M 110.800781 37.007812 C 110.800781 41.417969 110.359375 44.472656 109.476562 46.167969 C 108.589844 47.867188 106.898438 49.222656 104.402344 50.234375 C 102.378906 51.03125 100.191406 51.464844 97.84375 51.535156 L 97.191406 49.042969 C 99.578125 48.714844 101.257812 48.390625 102.234375 48.066406 C 104.152344 47.417969 105.46875 46.421875 106.191406 45.085938 C 106.773438 44 107.058594 41.925781 107.058594 38.851562 L 107.058594 37.820312 C 104.351562 39.050781 101.515625 39.664062 98.546875 39.664062 C 96.597656 39.664062 94.878906 39.050781 93.394531 37.820312 C 91.734375 36.484375 90.902344 34.785156 90.902344 32.726562 L 90.902344 16.246094 L 94.859375 14.890625 L 94.859375 31.480469 C 94.859375 33.25 95.433594 34.617188 96.574219 35.574219 C 97.71875 36.53125 99.199219 36.988281 101.015625 36.953125 C 102.832031 36.917969 104.777344 36.214844 106.84375 34.839844 L 106.84375 15.488281 L 110.800781 15.488281 Z M 110.800781 37.007812 "/>
<path style=" stroke:none;fill-rule:nonzero;fill:rgb(39.215686%,39.215686%,39.215686%);fill-opacity:1;" d="M 126.257812 39.554688 C 125.785156 39.59375 125.351562 39.609375 124.953125 39.609375 C 122.714844 39.609375 120.96875 39.078125 119.722656 38.007812 C 118.480469 36.9375 117.855469 35.460938 117.855469 33.574219 L 117.855469 17.980469 L 115.144531 17.980469 L 115.144531 15.488281 L 117.855469 15.488281 L 117.855469 8.875 L 121.808594 7.46875 L 121.808594 15.488281 L 126.257812 15.488281 L 126.257812 17.980469 L 121.808594 17.980469 L 121.808594 33.46875 C 121.808594 34.953125 122.207031 36.007812 123.003906 36.621094 C 123.691406 37.128906 124.777344 37.417969 126.257812 37.492188 Z M 126.257812 39.554688 "/>
<path style=" stroke:none;fill-rule:nonzero;fill:rgb(39.215686%,39.215686%,39.215686%);fill-opacity:1;" d="M 150.230469 39.230469 L 146.273438 39.230469 L 146.273438 23.945312 C 146.273438 22.390625 145.910156 21.050781 145.1875 19.933594 C 144.347656 18.667969 143.1875 18.035156 141.699219 18.035156 C 139.882812 18.035156 137.613281 18.996094 134.886719 20.910156 L 134.886719 39.230469 L 130.929688 39.230469 L 130.929688 2.695312 L 134.886719 1.449219 L 134.886719 18.089844 C 137.417969 16.246094 140.183594 15.324219 143.183594 15.324219 C 145.28125 15.324219 146.980469 16.03125 148.277344 17.4375 C 149.582031 18.847656 150.230469 20.601562 150.230469 22.699219 Z M 150.230469 39.230469 "/>
<path style=" stroke:none;fill-rule:nonzero;fill:rgb(39.215686%,39.215686%,39.215686%);fill-opacity:1;" d="M 171.277344 26.898438 C 171.277344 24.414062 170.804688 22.359375 169.863281 20.734375 C 168.746094 18.757812 167.011719 17.710938 164.664062 17.605469 C 160.320312 17.855469 158.15625 20.964844 158.15625 26.925781 C 158.15625 29.660156 158.605469 31.941406 159.515625 33.773438 C 160.675781 36.109375 162.417969 37.261719 164.742188 37.222656 C 169.097656 37.1875 171.277344 33.75 171.277344 26.898438 Z M 175.613281 26.925781 C 175.613281 30.464844 174.707031 33.410156 172.902344 35.765625 C 170.914062 38.398438 168.167969 39.71875 164.664062 39.71875 C 161.1875 39.71875 158.480469 38.398438 156.527344 35.765625 C 154.753906 33.410156 153.871094 30.464844 153.871094 26.925781 C 153.871094 23.597656 154.828125 20.800781 156.742188 18.523438 C 158.765625 16.105469 161.425781 14.890625 164.714844 14.890625 C 168.003906 14.890625 170.679688 16.105469 172.742188 18.523438 C 174.65625 20.800781 175.613281 23.597656 175.613281 26.925781 Z M 175.613281 26.925781 "/>
<path style=" stroke:none;fill-rule:nonzero;fill:rgb(39.215686%,39.215686%,39.215686%);fill-opacity:1;" d="M 198.3125 39.230469 L 194.355469 39.230469 L 194.355469 23.078125 C 194.355469 21.308594 193.820312 19.925781 192.753906 18.929688 C 191.691406 17.9375 190.269531 17.457031 188.496094 17.496094 C 186.617188 17.53125 184.828125 18.144531 183.128906 19.335938 L 183.128906 39.230469 L 179.171875 39.230469 L 179.171875 18.847656 C 181.449219 17.1875 183.546875 16.105469 185.460938 15.597656 C 187.265625 15.125 188.859375 14.890625 190.234375 14.890625 C 191.175781 14.890625 192.058594 14.984375 192.890625 15.164062 C 194.445312 15.523438 195.710938 16.191406 196.683594 17.171875 C 197.773438 18.253906 198.3125 19.554688 198.3125 21.074219 Z M 198.3125 39.230469 "/>
<path style=" stroke:none;fill-rule:nonzero;fill:url(#linear0);" d="M 26.894531 2.84375 C 24.855469 2.851562 22.910156 3.027344 21.199219 3.328125 C 16.15625 4.21875 15.242188 6.085938 15.242188 9.523438 L 15.242188 14.066406 L 27.15625 14.066406 L 27.15625 15.578125 L 10.769531 15.578125 C 7.304688 15.578125 4.273438 17.660156 3.324219 21.621094 C 2.230469 26.160156 2.179688 28.992188 3.324219 33.734375 C 4.171875 37.261719 6.195312 39.773438 9.65625 39.773438 L 13.753906 39.773438 L 13.753906 34.328125 C 13.753906 30.394531 17.15625 26.925781 21.199219 26.925781 L 33.101562 26.925781 C 36.414062 26.925781 39.058594 24.199219 39.058594 20.871094 L 39.058594 9.523438 C 39.058594 6.292969 36.335938 3.867188 33.101562 3.328125 C 31.054688 2.988281 28.929688 2.835938 26.894531 2.84375 Z M 20.449219 6.496094 C 21.679688 6.496094 22.683594 7.519531 22.683594 8.773438 C 22.683594 10.027344 21.679688 11.039062 20.449219 11.039062 C 19.214844 11.039062 18.210938 10.027344 18.210938 8.773438 C 18.210938 7.519531 19.214844 6.496094 20.449219 6.496094 Z M 20.449219 6.496094 "/>
<path style=" stroke:none;fill-rule:nonzero;fill:url(#linear1);" d="M 40.546875 15.578125 L 40.546875 20.871094 C 40.546875 24.972656 37.066406 28.425781 33.101562 28.425781 L 21.199219 28.425781 C 17.9375 28.425781 15.242188 31.21875 15.242188 34.484375 L 15.242188 45.828125 C 15.242188 49.058594 18.050781 50.957031 21.199219 51.886719 C 24.972656 52.996094 28.589844 53.195312 33.101562 51.886719 C 36.101562 51.015625 39.058594 49.269531 39.058594 45.828125 L 39.058594 41.289062 L 27.15625 41.289062 L 27.15625 39.773438 L 45.019531 39.773438 C 48.480469 39.773438 49.773438 37.359375 50.976562 33.734375 C 52.222656 30 52.167969 26.410156 50.976562 21.621094 C 50.121094 18.171875 48.484375 15.578125 45.019531 15.578125 Z M 33.851562 44.316406 C 35.085938 44.316406 36.085938 45.328125 36.085938 46.578125 C 36.085938 47.835938 35.085938 48.859375 33.851562 48.859375 C 32.621094 48.859375 31.617188 47.835938 31.617188 46.578125 C 31.617188 45.328125 32.621094 44.316406 33.851562 44.316406 Z M 33.851562 44.316406 "/>
<path style=" stroke:none;fill-rule:nonzero;fill:rgb(39.215686%,39.215686%,39.215686%);fill-opacity:1;" d="M 206.023438 11.960938 L 206.71875 11.960938 L 206.71875 7.605469 L 208.363281 7.605469 L 208.363281 7.085938 L 204.378906 7.085938 L 204.378906 7.605469 L 206.023438 7.605469 L 206.023438 11.960938 M 208.976562 11.960938 L 209.570312 11.960938 L 209.570312 7.984375 L 210.859375 11.960938 L 211.519531 11.960938 L 212.859375 7.996094 L 212.859375 11.960938 L 213.507812 11.960938 L 213.507812 7.085938 L 212.652344 7.085938 L 211.1875 11.261719 L 209.933594 7.085938 L 208.976562 7.085938 L 208.976562 11.960938 "/>
<use xlink:href="#surface6" mask="url(#mask0)"/>
</g>
</svg>
